<?xml version="1.0" standalone="no"?>
<!DOCTYPE svg PUBLIC "-//W3C//DTD SVG 20010904//EN"
 "http://www.w3.org/TR/2001/REC-SVG-20010904/DTD/svg10.dtd">
<svg version="1.0" xmlns="http://www.w3.org/2000/svg"
 width="64.000000pt" height="64.000000pt" viewBox="0 0 64.000000 64.000000"
 preserveAspectRatio="xMidYMid meet">

<g transform="translate(0.000000,64.000000) scale(0.100000,-0.100000)"
fill="#000000" stroke="none">
<path d="M235 631 c-91 -23 -164 -84 -202 -168 -49 -106 -38 -221 28 -313 l31
-43 219 219 218 218 -20 22 c-49 52 -194 86 -274 65z m79 -62 c-29 -28 -33
-30 -78 -22 -27 4 -49 12 -50 18 -1 13 69 33 119 34 l40 1 -31 -31z m126 -4
c17 -9 30 -19 30 -23 0 -5 -15 -23 -34 -41 l-34 -33 -34 23 c-18 12 -35 24
-37 26 -8 6 52 63 66 63 8 0 27 -7 43 -15z m-200 -63 c0 -3 -8 -14 -17 -24
-16 -18 -17 -18 -40 4 -32 30 -29 34 17 30 22 -2 40 -7 40 -10z m118 -55 c9
-11 4 -21 -23 -47 l-35 -34 -32 32 -32 32 28 29 c27 28 31 29 56 16 14 -7 32
-20 38 -28z m-194 -28 c-22 -25 -34 -15 -34 28 l0 36 25 -23 c23 -22 24 -25 9
-41z m-60 -47 c3 -5 -11 -24 -31 -43 l-36 -34 7 58 c3 32 14 73 23 90 l17 32
7 -47 c4 -26 10 -51 13 -56z m141 -2 l29 -30 -34 -35 c-37 -38 -49 -36 -70 16
-11 27 -10 32 10 54 13 14 26 25 30 25 3 0 19 -14 35 -30z m-109 -168 c-35
-35 -36 -36 -51 -17 -31 41 -30 64 6 101 l33 34 24 -41 24 -41 -36 -36z"/>
<path d="M331 316 l-215 -215 20 -22 c36 -41 112 -69 190 -69 99 0 158 23 220
85 66 66 88 126 82 233 -4 79 -19 124 -61 175 l-22 28 -214 -215z m238 122
l21 -42 -37 -38 -36 -37 -28 42 -28 42 36 38 c21 20 40 37 44 37 4 0 16 -19
28 -42z m-99 -108 l19 -38 -24 -26 c-13 -14 -27 -26 -32 -26 -4 0 -22 14 -40
32 l-33 32 37 38 c20 20 40 35 45 32 4 -3 17 -23 28 -44z m128 -43 c-3 -35
-14 -78 -23 -97 l-19 -35 -12 65 -12 65 31 33 c17 17 33 32 35 32 3 0 2 -28 0
-63z m-198 -82 c0 -6 -11 -22 -24 -34 l-25 -23 -40 23 c-23 12 -41 27 -41 33
0 5 14 25 32 43 l32 33 33 -32 c18 -18 33 -37 33 -43z m115 -1 c3 -25 5 -48 3
-50 -3 -2 -17 10 -33 26 -28 29 -28 30 -10 50 26 29 32 25 40 -26z m-234 -53
l40 -30 -33 -37 -34 -36 -35 17 c-63 32 -64 35 -22 77 20 21 38 38 40 38 2 0
21 -13 44 -29z m185 -2 l29 -31 -40 7 c-68 11 -70 13 -50 35 24 26 26 26 61
-11z m-26 -58 l45 -8 -40 -18 c-22 -9 -67 -20 -100 -22 l-60 -6 34 36 c25 26
40 35 55 31 12 -2 41 -8 66 -13z"/>
</g>
</svg>
